<?xml version="1.0" encoding="UTF-8" standalone="no"?>
<!DOCTYPE svg PUBLIC "-//W3C//DTD SVG 1.1//EN" "http://www.w3.org/Graphics/SVG/1.1/DTD/svg11.dtd">
<svg xmlns="http://www.w3.org/2000/svg" version="1.1" viewBox="0.00 0.00 300.00 300.00">
<rect fill="#5d9fd2" x="-13.99" y="-6.21" transform="translate(134.89,17.54) rotate(-7.5)" width="27.98" height="12.42" rx="3.69"/>
<path fill="#2e2e2e" d="
  M 235.28 54.74
  C 213.19 34.76 186.89 24.69 157.31 22.46
  C 154.08 22.22 154.90 14.29 155.57 11.93
  A 2.28 2.28 0.0 0 1 157.68 10.27
  Q 160.37 10.17 163.49 10.46
  Q 208.57 14.67 242.37 44.12
  C 245.10 46.49 246.00 48.37 243.21 51.21
  C 241.25 53.21 238.19 57.36 235.28 54.74
  Z"
/>
<path fill="#2e2e2e" d="
  M 26.86 90.67
  Q 45.96 49.24 85.70 26.94
  C 91.76 23.54 92.38 27.03 94.83 31.69
  Q 96.79 35.41 93.10 37.43
  Q 54.72 58.50 37.11 98.63
  C 35.46 102.40 28.50 98.96 26.47 97.56
  C 24.25 96.03 25.77 93.05 26.86 90.67
  Z"
/>
<path fill="#5d9fd2" d="
  M 145.60 45.00
  L 131.56 46.74
  A 3.61 3.61 0.0 0 1 127.62 44.05
  L 126.33 38.99
  A 3.61 3.61 0.0 0 1 129.40 34.51
  L 144.73 32.68
  A 3.61 3.61 0.0 0 1 148.77 36.27
  L 148.76 41.42
  A 3.61 3.61 0.0 0 1 145.60 45.00
  Z"
/>
<path fill="#2e2e2e" d="
  M 162.08 33.01
  C 185.24 35.04 207.06 44.02 224.93 58.87
  C 228.05 61.47 230.79 63.28 227.41 67.13
  C 224.93 69.94 222.31 73.10 218.86 70.14
  Q 192.41 47.39 157.23 45.04
  Q 155.64 44.93 155.14 42.51
  C 154.57 39.72 154.12 33.34 157.90 32.78
  Q 158.47 32.69 162.08 33.01
  Z"
/>
<path fill="#2e2e2e" d="
  M 48.79 96.64
  Q 64.62 65.13 95.50 47.25
  C 97.88 45.87 100.31 44.59 102.05 47.75
  C 104.20 51.63 107.09 55.06 102.20 57.84
  Q 76.19 72.65 61.98 99.13
  Q 59.95 102.91 57.96 106.70
  A 2.85 2.84 -69.9 0 1 54.83 108.16
  C 52.52 107.65 46.38 106.11 46.48 102.75
  Q 46.52 101.16 48.79 96.64
  Z"
/>
<path fill="#5d9fd2" d="
  M 145.73 67.97
  L 137.41 69.05
  A 3.60 3.60 0.0 0 1 133.47 66.39
  L 132.17 61.45
  A 3.60 3.60 0.0 0 1 135.18 56.96
  L 144.80 55.69
  A 3.60 3.60 0.0 0 1 148.87 59.26
  L 148.87 64.40
  A 3.60 3.60 0.0 0 1 145.73 67.97
  Z"
/>
<path fill="#2e2e2e" d="
  M 202.70 86.32
  C 190.14 75.85 175.07 69.52 158.75 68.08
  Q 157.33 67.96 156.09 67.24
  Q 155.66 67.00 155.50 66.54
  C 154.26 63.04 153.60 55.26 159.25 55.75
  Q 188.50 58.29 210.99 77.02
  Q 214.38 79.84 211.25 83.23
  C 208.90 85.78 206.37 89.37 202.70 86.32
  Z"
/>
<path fill="#2e2e2e" d="
  M 72.66 114.97
  C 70.11 114.15 66.99 112.45 68.47 109.22
  Q 80.98 82.01 106.94 67.12
  Q 109.90 65.42 111.60 68.18
  C 113.16 70.71 116.26 75.87 113.04 77.73
  Q 93.79 88.92 82.97 108.37
  Q 80.24 113.27 79.34 114.80
  C 77.75 117.51 74.75 115.65 72.66 114.97
  Z"
/>
<path fill="#5d9fd2" d="
  M 139.25 88.31
  L 138.06 83.64
  A 3.65 3.65 0.0 0 1 141.21 79.10
  L 144.90 78.71
  A 3.65 3.65 0.0 0 1 148.94 82.30
  L 148.99 87.25
  A 3.65 3.65 0.0 0 1 145.50 90.94
  L 142.95 91.05
  A 3.65 3.65 0.0 0 1 139.25 88.31
  Z"
/>
<path fill="#2e2e2e" d="
  M 184.45 100.82
  C 177.72 95.16 167.26 92.10 157.74 90.77
  C 154.17 90.26 154.65 85.56 154.82 83.00
  C 155.19 77.57 158.91 78.59 163.01 79.28
  Q 178.64 81.93 191.74 90.99
  C 193.44 92.17 198.04 95.31 196.32 97.83
  Q 194.15 101.01 190.84 103.58
  A 1.91 1.90 -49.9 0 1 188.79 103.76
  Q 186.62 102.64 184.45 100.82
  Z"
/>
<path fill="#5d9fd2" d="
  M 115.26 99.49
  L 112.20 95.75
  A 3.62 3.62 0.0 0 1 113.07 90.39
  L 116.63 88.16
  A 3.62 3.62 0.0 0 1 121.83 89.69
  L 123.89 94.10
  A 3.62 3.62 0.0 0 1 122.50 98.73
  L 119.95 100.29
  A 3.62 3.62 0.0 0 1 115.26 99.49
  Z"
/>
<rect fill="#5d9fd2" x="-6.23" y="-13.93" transform="translate(24.39,118.74) rotate(12.4)" width="12.46" height="27.86" rx="3.61"/>
<path fill="#5d9fd2" d="
  M 96.80 123.86
  L 91.95 122.11
  A 3.48 3.48 0.0 0 1 90.02 117.29
  L 91.88 113.56
  A 3.48 3.48 0.0 0 1 96.98 112.26
  L 101.16 115.16
  A 3.48 3.48 0.0 0 1 102.33 119.48
  L 101.14 122.05
  A 3.48 3.48 0.0 0 1 96.80 123.86
  Z"
/>
<path fill="#5d9fd2" d="
  M 38.51 129.74
  L 41.90 114.56
  A 3.48 3.48 0.0 0 1 46.48 112.05
  L 51.55 113.89
  A 3.48 3.48 0.0 0 1 53.77 117.89
  L 50.75 132.00
  A 3.48 3.48 0.0 0 1 46.85 134.72
  L 41.41 133.94
  A 3.48 3.48 0.0 0 1 38.51 129.74
  Z"
/>
<circle fill="#2e2e2e" cx="151.80" cy="146.77" r="33.99"/>
<path fill="#5d9fd2" d="
  M 61.44 131.83
  L 63.60 122.53
  A 3.63 3.63 0.0 0 1 68.31 119.92
  L 73.02 121.53
  A 3.63 3.63 0.0 0 1 75.40 125.71
  L 73.64 134.03
  A 3.63 3.63 0.0 0 1 69.64 136.89
  L 64.53 136.25
  A 3.63 3.63 0.0 0 1 61.44 131.83
  Z"
/>
<path fill="#2e2e2e" d="
  M 103.20 195.07
  C 93.45 185.53 86.55 172.41 84.34 159.25
  C 83.57 154.67 91.42 155.36 94.05 155.46
  A 2.41 2.41 0.0 0 1 96.33 157.42
  Q 99.50 174.40 111.68 186.47
  Q 113.07 187.85 112.05 189.52
  Q 110.41 192.19 107.58 195.09
  Q 105.45 197.28 103.20 195.07
  Z"
/>
<path fill="#5d9fd2" d="
  M 73.67 160.14
  L 75.46 168.21
  A 3.49 3.49 0.0 0 1 73.31 172.21
  L 68.33 174.15
  A 3.49 3.49 0.0 0 1 63.66 171.67
  L 61.45 161.92
  A 3.49 3.49 0.0 0 1 64.69 157.66
  L 70.10 157.40
  A 3.49 3.49 0.0 0 1 73.67 160.14
  Z"
/>
<path fill="#5d9fd2" d="
  M 50.77 162.11
  L 53.87 176.05
  A 3.59 3.59 0.0 0 1 51.62 180.19
  L 46.63 182.06
  A 3.59 3.59 0.0 0 1 41.87 179.46
  L 38.55 164.16
  A 3.59 3.59 0.0 0 1 41.71 159.82
  L 46.92 159.32
  A 3.59 3.59 0.0 0 1 50.77 162.11
  Z"
/>
<path fill="#2e2e2e" d="
  M 56.91 245.84
  C 34.66 224.21 21.59 197.91 16.28 166.75
  Q 15.59 162.72 19.04 162.04
  Q 23.44 161.16 25.50 161.24
  C 29.56 161.40 29.04 167.50 29.59 170.22
  Q 37.60 210.28 67.51 238.58
  A 2.48 2.48 0.0 0 1 67.97 241.58
  Q 65.70 245.67 61.98 248.42
  A 1.28 1.27 39.5 0 1 60.66 248.54
  Q 58.69 247.57 56.91 245.84
  Z"
/>
<path fill="#2e2e2e" d="
  M 114.00 221.12
  C 112.27 224.50 111.09 229.28 106.28 226.44
  Q 82.66 212.51 70.04 188.17
  Q 68.76 185.70 68.18 183.48
  A 2.68 2.68 0.0 0 1 69.54 180.41
  Q 72.51 178.88 76.01 178.04
  C 79.34 177.25 81.00 182.15 82.19 184.37
  Q 92.86 204.25 112.26 215.55
  C 114.62 216.92 115.22 218.74 114.00 221.12
  Z"
/>
<path fill="#497eb0" d="
  M 195.36 200.09
  L 191.90 202.81
  A 3.35 3.35 0.0 0 1 186.99 201.95
  L 184.07 197.30
  A 3.35 3.35 0.0 0 1 184.95 192.80
  L 187.60 190.89
  A 3.35 3.35 0.0 0 1 191.96 191.27
  L 195.70 195.12
  A 3.35 3.35 0.0 0 1 195.36 200.09
  Z"
/>
<path fill="#497eb0" d="
  M 112.47 198.59
  L 116.02 194.55
  A 3.39 3.39 0.0 0 1 120.43 193.95
  L 122.75 195.48
  A 3.39 3.39 0.0 0 1 123.96 199.73
  L 121.72 204.58
  A 3.39 3.39 0.0 0 1 116.81 206.01
  L 113.19 203.68
  A 3.39 3.39 0.0 0 1 112.47 198.59
  Z"
/>
<path fill="#2e2e2e" d="
  M 178.31 210.33
  Q 160.09 217.84 140.86 214.65
  C 136.04 213.85 138.35 208.81 139.15 206.10
  C 140.61 201.13 143.71 203.22 147.14 203.46
  Q 161.22 204.43 174.23 198.93
  Q 175.47 198.40 177.35 198.85
  Q 177.84 198.97 178.14 199.36
  Q 180.18 201.98 181.55 204.97
  C 183.01 208.16 180.81 209.30 178.31 210.33
  Z"
/>
<path fill="#497eb0" d="
  M 211.43 216.46
  L 203.45 222.46
  A 3.75 3.75 0.0 0 1 198.00 221.42
  L 195.45 217.27
  A 3.75 3.75 0.0 0 1 196.38 212.32
  L 203.40 207.00
  A 3.75 3.75 0.0 0 1 208.30 207.32
  L 211.81 210.80
  A 3.75 3.75 0.0 0 1 211.43 216.46
  Z"
/>
<path fill="#497eb0" d="
  M 62.09 218.20
  A 2.99 2.99 0.0 0 1 62.28 213.97
  L 65.36 211.16
  A 5.26 3.34 -42.4 0 1 71.49 210.08
  L 81.96 221.54
  A 5.26 3.34 -42.4 0 1 80.33 227.56
  L 77.25 230.37
  A 2.99 2.99 0.0 0 1 73.02 230.18
  L 62.09 218.20
  Z"
/>
<path fill="#497eb0" d="
  M 158.58 226.00
  L 165.73 225.00
  A 3.57 3.57 0.0 0 1 169.66 227.59
  L 171.06 232.65
  A 3.57 3.57 0.0 0 1 168.16 237.13
  L 159.53 238.46
  A 3.57 3.57 0.0 0 1 155.41 234.87
  L 155.51 229.47
  A 3.57 3.57 0.0 0 1 158.58 226.00
  Z"
/>
<path fill="#497eb0" d="
  M 244.81 248.83
  Q 243.51 249.16 241.36 251.18
  C 237.12 255.16 232.20 258.49 227.28 261.57
  C 221.86 264.96 219.47 258.00 218.01 254.67
  A 1.35 1.33 -45.9 0 1 218.00 253.64
  Q 218.66 252.06 220.09 251.10
  Q 229.82 244.61 234.11 240.35
  C 235.79 238.69 236.22 235.24 237.89 233.36
  C 242.80 227.83 251.66 230.90 253.16 237.89
  C 254.38 243.62 250.24 247.46 244.81 248.83
  Z"
/>
<path fill="#497eb0" d="
  M 184.37 243.86
  L 197.33 238.42
  A 3.75 3.75 0.0 0 1 202.02 239.99
  L 204.61 244.42
  A 3.75 3.75 0.0 0 1 202.78 249.79
  L 188.66 255.52
  A 3.75 3.75 0.0 0 1 183.66 253.13
  L 182.23 248.41
  A 3.75 3.75 0.0 0 1 184.37 243.86
  Z"
/>
<rect fill="#497eb0" x="-13.99" y="-6.29" transform="translate(81.72,257.11) rotate(32.6)" width="27.98" height="12.58" rx="3.75"/>
<path fill="#497eb0" d="
  M 144.90 261.39
  L 129.31 259.39
  A 3.62 3.62 0.0 0 1 126.27 254.89
  L 127.57 249.87
  A 3.62 3.62 0.0 0 1 131.52 247.18
  L 145.87 248.93
  A 3.62 3.62 0.0 0 1 149.06 252.57
  L 148.98 257.85
  A 3.62 3.62 0.0 0 1 144.90 261.39
  Z"
/>
<path fill="#2e2e2e" d="
  M 208.85 271.66
  Q 167.66 290.07 123.50 281.00
  Q 120.19 280.32 120.62 276.78
  C 120.98 273.82 121.59 268.35 125.24 268.85
  C 130.81 269.61 136.59 270.70 141.96 271.00
  C 165.35 272.35 187.41 268.54 208.23 257.89
  C 212.43 255.74 215.06 262.19 216.40 265.68
  Q 216.57 266.13 216.37 266.57
  C 215.21 269.03 211.24 270.59 208.85 271.66
  Z"
/>
</svg>
