<?xml version="1.0" encoding="UTF-8" standalone="no"?>
<!DOCTYPE svg PUBLIC "-//W3C//DTD SVG 1.1//EN" "http://www.w3.org/Graphics/SVG/1.1/DTD/svg11.dtd">
<svg xmlns="http://www.w3.org/2000/svg" version="1.1" viewBox="0.00 0.00 300.00 154.00">
<path fill="#ffffff" d="
  M 69.39 0.00
  L 74.53 0.00
  Q 75.90 2.24 75.12 5.76
  A 1.32 1.30 -87.1 0 1 74.00 6.79
  L 62.70 8.21
  Q 60.65 8.47 60.14 6.47
  L 59.53 4.02
  Q 58.98 1.83 61.20 1.44
  L 69.39 0.00
  Z"
/>
<path fill="#ffffff" d="
  M 79.88 0.00
  L 85.22 0.00
  Q 110.01 3.15 128.56 19.46
  Q 130.37 21.05 128.68 22.76
  L 126.84 24.63
  Q 125.34 26.15 123.74 24.73
  Q 105.30 8.43 80.58 6.93
  A 1.59 1.57 -6.3 0 1 79.16 5.80
  Q 78.13 2.21 79.88 0.00
  Z"
/>
<path fill="#ffffff" d="
  M 6.32 46.63
  Q 17.27 21.68 41.19 8.65
  A 1.91 1.90 -26.9 0 1 43.83 9.51
  L 45.13 12.27
  Q 46.00 14.12 44.21 15.10
  Q 22.81 26.91 12.90 49.28
  Q 11.96 51.40 9.81 50.52
  L 7.51 49.58
  Q 5.40 48.72 6.32 46.63
  Z"
/>
<path fill="#ffffff" d="
  M 64.47 13.60
  L 73.04 12.48
  A 2.03 2.03 0.0 0 1 75.33 14.45
  L 75.41 17.45
  A 2.03 2.03 0.0 0 1 73.64 19.51
  L 65.63 20.55
  A 2.03 2.03 0.0 0 1 63.38 18.97
  L 62.75 16.04
  A 2.03 2.03 0.0 0 1 64.47 13.60
  Z"
/>
<path fill="#ffffff" d="
  M 114.85 33.72
  C 105.24 25.38 93.61 20.54 80.95 19.60
  Q 78.77 19.44 78.87 17.26
  L 79.00 14.53
  Q 79.10 12.43 81.21 12.58
  Q 103.24 14.14 119.73 28.63
  Q 121.38 30.08 119.83 31.63
  L 117.85 33.61
  Q 116.40 35.07 114.85 33.72
  Z"
/>
<path fill="#ffffff" d="
  M 18.19 51.10
  Q 27.17 30.94 46.47 20.25
  Q 48.37 19.20 49.28 21.16
  L 50.45 23.68
  Q 51.33 25.57 49.51 26.60
  Q 32.70 36.14 24.70 53.74
  Q 23.81 55.70 21.81 54.91
  L 19.36 53.95
  Q 17.29 53.13 18.19 51.10
  Z"
/>
<path fill="#ffffff" d="
  M 73.61 32.52
  L 69.11 33.08
  A 2.13 2.13 0.0 0 1 66.78 31.50
  L 66.08 28.77
  A 2.13 2.13 0.0 0 1 67.90 26.12
  L 73.12 25.54
  A 2.13 2.13 0.0 0 1 75.48 27.66
  L 75.48 30.41
  A 2.13 2.13 0.0 0 1 73.61 32.52
  Z"
/>
<path fill="#ffffff" d="
  M 105.81 42.89
  C 99.11 37.03 90.13 33.33 81.05 32.52
  Q 78.75 32.32 78.87 30.01
  L 78.99 27.52
  Q 79.10 25.36 81.25 25.55
  Q 97.90 27.00 110.57 37.79
  Q 112.24 39.21 110.71 40.77
  L 108.75 42.77
  Q 107.34 44.22 105.81 42.89
  Z"
/>
<path fill="#ffffff" d="
  M 30.35 55.57
  Q 37.40 40.39 51.89 32.02
  Q 53.75 30.95 54.70 32.88
  L 55.87 35.25
  Q 56.82 37.17 54.98 38.26
  Q 42.90 45.43 36.82 58.08
  Q 35.85 60.10 33.77 59.29
  L 31.48 58.39
  Q 29.42 57.58 30.35 55.57
  Z"
/>
<path fill="#ffffff" d="
  M 70.16 44.13
  L 69.35 41.37
  A 2.00 2.00 0.0 0 1 70.93 38.84
  L 73.15 38.46
  A 2.00 2.00 0.0 0 1 75.48 40.43
  L 75.49 43.24
  A 2.00 2.00 0.0 0 1 73.93 45.19
  L 72.52 45.51
  A 2.00 2.00 0.0 0 1 70.16 44.13
  Z"
/>
<path fill="#ffffff" d="
  M 81.10 38.53
  C 88.45 39.21 96.14 42.32 101.69 47.28
  Q 103.08 48.52 101.77 49.84
  L 99.70 51.92
  Q 98.44 53.19 97.02 52.09
  Q 89.80 46.45 80.70 45.28
  Q 78.66 45.02 78.76 42.96
  L 78.89 40.46
  Q 78.99 38.34 81.10 38.53
  Z"
/>
<path fill="#ffffff" d="
  M 56.71 50.28
  L 54.91 48.24
  A 2.07 2.07 0.0 0 1 55.27 45.17
  L 57.23 43.80
  A 2.07 2.07 0.0 0 1 60.31 44.66
  L 61.42 47.16
  A 2.07 2.07 0.0 0 1 60.73 49.69
  L 59.46 50.59
  A 2.07 2.07 0.0 0 1 56.71 50.28
  Z"
/>
<path fill="#ffffff" d="
  M 156.70 64.31
  L 156.83 63.96
  A 1.68 1.67 20.8 0 0 155.86 61.82
  C 152.19 60.40 147.89 59.96 147.26 55.60
  C 146.08 47.49 155.34 46.19 160.48 49.48
  Q 161.26 49.99 160.81 50.80
  L 159.75 52.74
  A 1.03 1.02 -56.7 0 1 158.23 53.06
  Q 155.65 51.09 152.64 52.21
  A 1.80 1.80 0.0 0 0 152.69 55.60
  C 156.66 56.94 162.20 57.98 161.41 63.75
  C 160.45 70.80 152.31 71.42 147.30 68.01
  Q 146.09 67.18 146.90 65.96
  L 147.59 64.91
  A 1.53 1.52 33.8 0 1 149.72 64.49
  Q 151.54 65.71 153.66 66.07
  A 2.75 2.75 0.0 0 0 156.70 64.31
  Z"
/>
<path fill="#ffffff" d="
  M 131.00 65.34
  L 129.52 69.41
  A 0.54 0.54 0.0 0 1 129.04 69.76
  L 124.97 69.93
  A 0.54 0.54 0.0 0 1 124.45 69.19
  L 132.50 48.33
  A 0.54 0.54 0.0 0 1 133.00 47.98
  L 137.42 47.99
  A 0.54 0.54 0.0 0 1 137.92 48.33
  L 145.97 69.17
  A 0.54 0.54 0.0 0 1 145.45 69.90
  L 141.32 69.73
  A 0.54 0.54 0.0 0 1 140.83 69.36
  L 139.49 65.30
  A 0.54 0.54 0.0 0 0 138.98 64.93
  L 131.51 64.99
  A 0.54 0.54 0.0 0 0 131.00 65.34
  Z
  M 132.38 61.04
  A 0.36 0.36 0.0 0 0 132.73 61.51
  L 137.74 61.46
  A 0.36 0.36 0.0 0 0 138.08 60.99
  L 135.51 53.59
  A 0.36 0.36 0.0 0 0 134.83 53.60
  L 132.38 61.04
  Z"
/>
<path fill="#ffffff" d="
  M 173.93 52.53
  L 173.93 69.28
  A 0.53 0.53 0.0 0 1 173.41 69.81
  L 169.41 69.84
  A 0.53 0.53 0.0 0 1 168.87 69.31
  L 168.88 52.51
  A 0.53 0.53 0.0 0 0 168.34 51.98
  L 163.29 52.06
  A 0.53 0.53 0.0 0 1 162.75 51.53
  L 162.78 48.52
  A 0.53 0.53 0.0 0 1 163.31 47.99
  L 179.49 47.99
  A 0.53 0.53 0.0 0 1 180.02 48.53
  L 180.00 51.50
  A 0.53 0.53 0.0 0 1 179.46 52.03
  L 174.46 52.00
  A 0.53 0.53 0.0 0 0 173.93 52.53
  Z"
/>
<path fill="#ffffff" d="
  M 184.68 65.39
  L 183.38 69.30
  A 0.59 0.59 0.0 0 1 182.85 69.71
  L 178.82 69.96
  A 0.59 0.59 0.0 0 1 178.23 69.16
  L 186.21 48.36
  A 0.59 0.59 0.0 0 1 186.77 47.98
  L 191.12 47.99
  A 0.59 0.59 0.0 0 1 191.67 48.37
  L 199.67 69.10
  A 0.59 0.59 0.0 0 1 199.10 69.90
  L 195.12 69.71
  A 0.59 0.59 0.0 0 1 194.59 69.31
  L 193.25 65.34
  A 0.59 0.59 0.0 0 0 192.68 64.94
  L 185.23 64.99
  A 0.59 0.59 0.0 0 0 184.68 65.39
  Z
  M 186.17 60.97
  A 0.41 0.41 0.0 0 0 186.56 61.51
  L 191.37 61.48
  A 0.41 0.41 0.0 0 0 191.76 60.94
  L 189.31 53.71
  A 0.41 0.41 0.0 0 0 188.54 53.71
  L 186.17 60.97
  Z"
/>
<path fill="#ffffff" d="
  M 206.55 56.82
  Q 205.99 56.15 206.00 57.02
  L 206.06 68.96
  Q 206.07 69.74 205.29 69.78
  L 202.62 69.91
  Q 201.66 69.95 201.66 68.99
  L 201.67 48.82
  Q 201.67 48.26 202.21 48.10
  Q 204.58 47.38 206.05 49.16
  Q 210.82 54.97 215.50 60.74
  Q 216.20 61.59 216.19 60.49
  L 216.15 48.68
  A 0.67 0.67 0.0 0 1 216.82 48.01
  L 220.04 47.98
  Q 220.60 47.97 220.60 48.54
  L 220.57 69.27
  Q 220.57 69.90 219.93 69.93
  C 218.06 70.00 216.82 69.77 215.61 68.17
  Q 211.11 62.24 206.55 56.82
  Z"
/>
<path fill="#ffffff" d="
  M 237.18 64.93
  L 229.44 64.99
  A 0.33 0.33 0.0 0 0 229.13 65.21
  L 227.59 69.49
  A 0.33 0.33 0.0 0 1 227.30 69.71
  L 222.77 69.94
  A 0.33 0.33 0.0 0 1 222.44 69.50
  L 230.62 48.19
  A 0.33 0.33 0.0 0 1 230.93 47.98
  L 235.66 47.98
  A 0.33 0.33 0.0 0 1 235.97 48.19
  L 244.16 69.45
  A 0.33 0.33 0.0 0 1 243.84 69.90
  L 239.33 69.71
  A 0.33 0.33 0.0 0 1 239.04 69.49
  L 237.49 65.15
  A 0.33 0.33 0.0 0 0 237.18 64.93
  Z
  M 230.47 61.03
  A 0.36 0.36 0.0 0 0 230.81 61.51
  L 235.85 61.47
  A 0.36 0.36 0.0 0 0 236.19 60.99
  L 233.62 53.66
  A 0.36 0.36 0.0 0 0 232.94 53.67
  L 230.47 61.03
  Z"
/>
<rect fill="#ffffff" x="-2.56" y="-10.92" transform="translate(254.40,58.92) rotate(-0.2)" width="5.12" height="21.84" rx="0.64"/>
<path fill="#ffffff" d="
  M 269.87 69.84
  L 266.35 69.76
  A 0.71 0.71 0.0 0 1 265.66 69.06
  L 265.59 52.76
  A 0.71 0.71 0.0 0 0 264.91 52.05
  L 260.33 51.86
  A 0.71 0.71 0.0 0 1 259.66 51.22
  L 259.40 48.73
  A 0.71 0.71 0.0 0 1 260.12 47.94
  L 275.98 48.21
  A 0.71 0.71 0.0 0 1 276.68 48.95
  L 276.60 51.15
  A 0.71 0.71 0.0 0 1 275.91 51.83
  L 271.34 51.98
  A 0.71 0.71 0.0 0 0 270.66 52.68
  L 270.59 69.13
  A 0.71 0.71 0.0 0 1 269.87 69.84
  Z"
/>
<rect fill="#ffffff" x="-3.55" y="-7.92" transform="translate(5.54,61.04) rotate(12.5)" width="7.10" height="15.84" rx="2.07"/>
<path fill="#ffffff" d="
  M 42.45 60.19
  L 43.43 58.15
  A 2.00 2.00 0.0 0 1 46.40 57.39
  L 48.75 59.09
  A 2.00 2.00 0.0 0 1 49.33 61.69
  L 48.57 63.05
  A 2.00 2.00 0.0 0 1 46.08 63.93
  L 43.51 62.91
  A 2.00 2.00 0.0 0 1 42.45 60.19
  Z"
/>
<path fill="#ffffff" d="
  M 13.46 67.18
  L 15.29 58.76
  A 2.09 2.09 0.0 0 1 18.02 57.24
  L 20.77 58.20
  A 2.09 2.09 0.0 0 1 22.12 60.63
  L 20.38 68.45
  A 2.09 2.09 0.0 0 1 18.06 70.07
  L 15.23 69.70
  A 2.09 2.09 0.0 0 1 13.46 67.18
  Z"
/>
<circle fill="#ffffff" cx="77.10" cy="76.84" r="19.13"/>
<path fill="#ffffff" d="
  M 26.40 68.39
  L 27.51 63.18
  A 2.09 2.09 0.0 0 1 30.29 61.65
  L 32.91 62.63
  A 2.09 2.09 0.0 0 1 34.23 65.02
  L 33.27 69.54
  A 2.09 2.09 0.0 0 1 31.01 71.19
  L 28.23 70.91
  A 2.09 2.09 0.0 0 1 26.40 68.39
  Z"
/>
<path fill="#ffffff" d="
  M 46.02 83.36
  C 47.29 89.40 50.18 94.78 54.52 99.22
  A 1.59 1.59 0.0 0 1 54.57 101.39
  L 52.11 104.12
  Q 51.12 105.23 50.04 104.20
  Q 41.46 95.95 39.30 84.18
  Q 38.92 82.12 41.00 81.88
  L 43.54 81.58
  Q 45.59 81.34 46.02 83.36
  Z"
/>
<path fill="#ffffff" d="
  M 33.23 84.27
  L 34.25 88.92
  A 2.03 2.03 0.0 0 1 32.91 91.28
  L 30.12 92.20
  A 2.03 2.03 0.0 0 1 27.50 90.70
  L 26.38 85.49
  A 2.03 2.03 0.0 0 1 28.11 83.05
  L 30.99 82.69
  A 2.03 2.03 0.0 0 1 33.23 84.27
  Z"
/>
<path fill="#ffffff" d="
  M 241.52 89.92
  C 242.69 93.97 251.33 91.42 251.24 98.74
  C 251.14 106.27 243.26 107.25 237.47 104.27
  Q 235.48 103.25 236.87 101.49
  L 237.14 101.14
  Q 238.33 99.63 239.97 100.63
  Q 243.02 102.49 244.94 101.73
  C 246.99 100.92 247.18 98.27 244.95 97.31
  C 241.50 95.82 237.25 95.88 236.90 90.98
  C 236.35 83.20 245.39 82.18 250.30 85.41
  Q 250.82 85.74 250.65 86.33
  Q 250.28 87.68 249.39 88.73
  Q 249.00 89.19 248.45 88.96
  C 246.32 88.09 243.38 86.43 241.65 89.07
  A 1.05 1.02 -37.0 0 0 241.52 89.92
  Z"
/>
<path fill="#ffffff" d="
  M 134.47 101.59
  A 3.92 3.92 0.0 0 0 138.36 97.68
  L 138.38 84.57
  Q 138.38 83.89 139.06 83.90
  L 142.75 83.96
  Q 143.40 83.98 143.42 84.62
  Q 143.66 94.06 143.40 97.99
  C 142.67 108.91 124.73 108.70 124.72 96.74
  Q 124.71 90.35 124.81 84.42
  Q 124.82 83.95 125.30 83.95
  L 129.41 83.97
  Q 129.86 83.97 129.86 84.41
  L 129.91 98.41
  A 3.20 3.19 89.6 0 0 133.13 101.59
  L 134.47 101.59
  Z"
/>
<path fill="#ffffff" d="
  M 151.76 92.99
  L 151.82 104.95
  Q 151.83 105.72 151.05 105.73
  L 148.05 105.75
  A 0.70 0.69 89.6 0 1 147.35 105.05
  L 147.39 84.73
  A 0.86 0.86 0.0 0 1 148.17 83.87
  C 150.04 83.70 151.04 83.79 152.28 85.37
  Q 156.81 91.09 160.92 96.37
  Q 162.00 97.76 161.99 96.00
  L 161.92 84.41
  Q 161.92 84.00 162.33 83.99
  L 165.78 83.95
  Q 166.37 83.95 166.37 84.53
  L 166.32 105.16
  Q 166.32 105.60 165.88 105.68
  C 163.97 106.05 162.68 105.74 161.42 104.15
  Q 156.87 98.36 152.43 92.75
  Q 151.75 91.89 151.76 92.99
  Z"
/>
<rect fill="#ffffff" x="170.51" y="83.90" width="5.12" height="21.84" rx="0.68"/>
<path fill="#ffffff" d="
  M 188.68 98.69
  L 193.80 84.26
  A 0.33 0.33 0.0 0 1 194.09 84.04
  L 198.84 83.82
  A 0.33 0.33 0.0 0 1 199.16 84.28
  L 190.66 105.53
  A 0.33 0.33 0.0 0 1 190.36 105.74
  L 186.28 105.73
  A 0.33 0.33 0.0 0 1 185.98 105.52
  L 177.48 84.26
  A 0.33 0.33 0.0 0 1 177.81 83.81
  L 182.48 84.07
  A 0.33 0.33 0.0 0 1 182.77 84.28
  L 188.06 98.69
  A 0.33 0.33 0.0 0 0 188.68 98.69
  Z"
/>
<path fill="#ffffff" d="
  M 206.01 97.20
  L 206.04 101.16
  A 0.65 0.65 0.0 0 0 206.69 101.81
  L 214.34 101.77
  A 0.65 0.65 0.0 0 1 214.99 102.41
  L 215.04 105.06
  A 0.65 0.65 0.0 0 1 214.39 105.72
  L 201.64 105.76
  A 0.65 0.65 0.0 0 1 200.99 105.11
  L 200.98 84.58
  A 0.65 0.65 0.0 0 1 201.63 83.93
  L 214.37 83.98
  A 0.65 0.65 0.0 0 1 215.01 84.62
  L 215.03 87.11
  A 0.65 0.65 0.0 0 1 214.38 87.76
  L 206.66 87.75
  A 0.65 0.65 0.0 0 0 206.01 88.40
  L 206.02 92.29
  A 0.65 0.65 0.0 0 0 206.68 92.93
  L 212.30 92.80
  A 0.65 0.65 0.0 0 1 212.96 93.43
  L 213.04 95.97
  A 0.65 0.65 0.0 0 1 212.38 96.64
  L 206.67 96.55
  A 0.65 0.65 0.0 0 0 206.01 97.20
  Z"
/>
<path fill="#ffffff" d="
  M 279.07 86.04
  Q 279.07 86.22 279.01 87.26
  Q 278.97 87.89 278.34 87.88
  L 273.61 87.76
  Q 272.97 87.75 272.97 88.39
  L 273.02 104.98
  Q 273.02 105.74 272.27 105.74
  L 268.53 105.71
  Q 267.86 105.71 267.87 105.03
  L 267.93 88.20
  Q 267.94 87.71 267.45 87.72
  L 262.65 87.89
  Q 261.89 87.92 261.87 87.16
  L 261.82 84.71
  Q 261.80 83.97 262.54 83.97
  L 283.46 83.88
  A 1.95 1.94 -13.4 0 1 285.22 84.96
  L 289.26 93.18
  A 0.32 0.32 0.0 0 0 289.83 93.18
  L 293.74 85.02
  Q 294.26 83.95 295.45 83.93
  L 299.00 83.85
  Q 299.99 83.83 299.49 84.68
  Q 296.53 89.66 293.49 94.85
  C 291.57 98.13 291.82 101.25 292.17 104.75
  Q 292.26 105.73 291.28 105.74
  L 287.80 105.75
  Q 286.88 105.76 286.94 104.84
  C 287.18 101.38 287.46 98.17 285.57 94.94
  Q 282.93 90.44 280.26 85.76
  Q 279.17 83.85 279.07 86.04
  Z"
/>
<path fill="#ffffff" d="
  M 20.43 85.66
  L 22.11 93.15
  A 2.19 2.19 0.0 0 1 20.82 95.66
  L 18.29 96.70
  A 2.19 2.19 0.0 0 1 15.31 95.16
  L 13.43 86.70
  A 2.19 2.19 0.0 0 1 15.50 84.03
  L 18.23 83.95
  A 2.19 2.19 0.0 0 1 20.43 85.66
  Z"
/>
<path fill="#ffffff" d="
  M 230.33 96.82
  L 235.28 104.60
  Q 236.04 105.80 234.63 105.77
  L 231.35 105.72
  Q 230.02 105.70 229.36 104.54
  L 225.89 98.43
  A 1.80 1.79 83.7 0 0 224.87 97.61
  Q 223.15 97.08 223.12 98.75
  Q 223.07 102.22 223.14 105.03
  Q 223.16 105.72 222.47 105.72
  L 218.79 105.76
  Q 218.06 105.77 218.06 105.04
  L 218.04 84.52
  Q 218.04 84.10 218.45 84.08
  Q 224.84 83.67 228.24 84.10
  C 234.83 84.93 235.81 92.73 230.48 96.16
  Q 230.08 96.42 230.33 96.82
  Z
  M 223.03 88.51
  L 222.98 93.29
  A 0.90 0.90 0.0 0 0 223.87 94.20
  L 225.27 94.21
  A 3.70 3.09 0.6 0 0 229.00 91.16
  L 229.00 90.76
  A 3.70 3.09 0.6 0 0 225.33 87.63
  L 223.93 87.62
  A 0.90 0.90 0.0 0 0 223.03 88.51
  Z"
/>
<rect fill="#ffffff" x="254.24" y="83.97" width="5.02" height="21.76" rx="0.50"/>
<path fill="#ffffff" d="
  M 7.97 87.03
  C 10.34 102.80 17.73 117.02 29.31 128.04
  Q 30.90 129.56 29.46 131.23
  L 27.73 133.24
  Q 26.24 134.96 24.60 133.39
  Q 5.07 114.78 0.93 87.97
  Q 0.55 85.51 3.03 85.22
  L 5.27 84.96
  Q 7.62 84.69 7.97 87.03
  Z"
/>
<path fill="#ffffff" d="
  M 36.66 95.65
  C 41.47 105.11 47.03 110.44 55.16 115.83
  Q 56.78 116.91 55.90 118.64
  L 54.65 121.14
  Q 53.72 122.97 51.95 121.94
  Q 37.42 113.54 30.32 98.30
  Q 29.41 96.36 31.40 95.55
  L 33.80 94.58
  Q 35.72 93.80 36.66 95.65
  Z"
/>
<path fill="#ffffff" d="
  M 95.76 102.78
  L 97.11 101.74
  A 1.96 1.96 0.0 0 1 99.69 101.92
  L 101.73 103.98
  A 1.96 1.96 0.0 0 1 101.54 106.91
  L 99.66 108.36
  A 1.96 1.96 0.0 0 1 96.79 107.84
  L 95.27 105.36
  A 1.96 1.96 0.0 0 1 95.76 102.78
  Z"
/>
<path fill="#ffffff" d="
  M 61.44 106.78
  L 60.25 109.35
  A 2.01 2.01 0.0 0 1 57.29 110.16
  L 55.48 108.92
  A 2.01 2.01 0.0 0 1 55.07 105.98
  L 56.85 103.82
  A 2.01 2.01 0.0 0 1 59.55 103.45
  L 60.76 104.29
  A 2.01 2.01 0.0 0 1 61.44 106.78
  Z"
/>
<path fill="#ffffff" d="
  M 90.88 113.27
  Q 81.39 116.70 70.96 115.09
  Q 68.76 114.75 69.36 112.61
  L 70.03 110.25
  Q 70.61 108.22 72.71 108.49
  Q 81.80 109.69 90.14 106.05
  A 1.50 1.50 0.0 0 1 91.89 106.46
  Q 93.31 108.16 94.08 110.24
  A 1.23 1.22 -31.7 0 1 93.76 111.57
  Q 92.60 112.65 90.88 113.27
  Z"
/>
<path fill="#ffffff" d="
  M 102.06 113.79
  L 106.19 110.70
  A 2.01 2.01 0.0 0 1 108.82 110.90
  L 110.90 113.00
  A 2.01 2.01 0.0 0 1 110.69 116.01
  L 106.10 119.54
  A 2.01 2.01 0.0 0 1 103.17 119.02
  L 101.57 116.47
  A 2.01 2.01 0.0 0 1 102.06 113.79
  Z"
/>
<rect fill="#ffffff" x="-3.53" y="-6.24" transform="translate(32.36,118.13) rotate(-41.9)" width="7.06" height="12.48" rx="2.01"/>
<path fill="#ffffff" d="
  M 80.98 121.38
  L 84.84 120.91
  A 2.12 2.12 0.0 0 1 87.13 122.42
  L 87.91 125.09
  A 2.12 2.12 0.0 0 1 86.14 127.79
  L 81.34 128.39
  A 2.12 2.12 0.0 0 1 78.96 126.17
  L 79.12 123.36
  A 2.12 2.12 0.0 0 1 80.98 121.38
  Z"
/>
<path fill="#ffffff" d="
  M 122.64 130.14
  C 125.05 128.13 124.31 125.04 127.87 124.11
  C 132.40 122.93 136.03 128.58 133.09 132.23
  C 131.73 133.92 129.55 134.02 127.92 135.41
  Q 123.92 138.80 119.06 141.80
  Q 117.24 142.92 116.15 141.08
  L 114.66 138.56
  Q 113.63 136.83 115.30 135.69
  Q 119.01 133.17 122.64 130.14
  Z"
/>
<rect fill="#ffffff" x="-6.24" y="-3.53" transform="translate(100.40,133.23) rotate(-23.3)" width="12.48" height="7.06" rx="2.02"/>
<rect fill="#ffffff" x="-7.91" y="-3.56" transform="translate(37.74,138.99) rotate(33.0)" width="15.82" height="7.12" rx="2.05"/>
<rect fill="#ffffff" x="-6.32" y="-3.54" transform="translate(69.29,137.35) rotate(7.3)" width="12.64" height="7.08" rx="2.11"/>
<path fill="#ffffff" d="
  M 84.11 154.00
  L 70.01 154.00
  L 61.32 152.53
  Q 58.92 152.12 59.52 149.77
  L 60.11 147.45
  Q 60.70 145.16 63.02 145.61
  Q 87.04 150.28 108.80 139.47
  Q 110.68 138.53 111.67 140.39
  L 113.02 142.94
  Q 114.01 144.80 112.13 145.75
  Q 99.06 152.31 84.11 154.00
  Z"
/>
</svg>
